<?xml version="1.0" encoding="utf-8" standalone="no"?>
<!DOCTYPE svg PUBLIC "-//W3C//DTD SVG 1.1//EN"
  "http://www.w3.org/Graphics/SVG/1.1/DTD/svg11.dtd">
<svg xmlns:xlink="http://www.w3.org/1999/xlink" width="720pt" height="720pt" viewBox="0 0 720 720" xmlns="http://www.w3.org/2000/svg" version="1.1">
 <metadata>
  <rdf:RDF xmlns:dc="http://purl.org/dc/elements/1.1/" xmlns:cc="http://creativecommons.org/ns#" xmlns:rdf="http://www.w3.org/1999/02/22-rdf-syntax-ns#">
   <cc:Work>
    <dc:type rdf:resource="http://purl.org/dc/dcmitype/StillImage"/>
    <dc:date>2024-01-10T19:50:15.442546</dc:date>
    <dc:format>image/svg+xml</dc:format>
    <dc:creator>
     <cc:Agent>
      <dc:title>Matplotlib v3.8.0, https://matplotlib.org/</dc:title>
     </cc:Agent>
    </dc:creator>
   </cc:Work>
  </rdf:RDF>
 </metadata>
 <defs>
  <style type="text/css">*{stroke-linejoin: round; stroke-linecap: butt}</style>
 </defs>
 <g id="figure_1">
  <g id="patch_1">
   <path d="M 0 720 
L 720 720 
L 720 0 
L 0 0 
z
" style="fill: #ffffff"/>
  </g>
  <g id="axes_1">
   <g id="patch_2">
    <path d="M 91.8 640.8 
L 646.2 640.8 
L 646.2 86.4 
L 91.8 86.4 
z
" style="fill: #ffffff"/>
   </g>
   <g id="PolyCollection_1">
    <path d="M 600 443.216505 
L 600 443.216505 
L 595.38 443.216505 
L 590.76 443.216505 
L 586.14 443.216505 
L 581.52 443.216505 
L 576.9 443.216505 
L 572.28 443.216505 
L 567.66 443.216505 
L 563.04 443.216505 
L 558.42 443.216505 
L 553.8 432.427653 
L 549.18 432.427653 
L 544.56 432.427653 
L 539.94 432.427653 
L 535.32 432.427653 
L 530.7 432.427653 
L 526.08 432.427653 
L 521.46 432.427653 
L 516.84 432.427653 
L 512.22 432.427653 
L 507.6 398.833556 
L 502.98 398.833556 
L 498.36 398.833556 
L 493.74 398.833556 
L 489.12 398.833556 
L 484.5 398.833556 
L 479.88 398.833556 
L 475.26 398.833556 
L 470.64 398.833556 
L 466.02 398.833556 
L 461.4 376.716377 
L 456.78 376.716377 
L 452.16 376.716377 
L 447.54 376.716377 
L 442.92 376.716377 
L 438.3 376.716377 
L 433.68 376.716377 
L 429.06 376.716377 
L 424.44 376.716377 
L 419.82 376.716377 
L 415.2 372.745319 
L 410.58 372.745319 
L 405.96 372.745319 
L 401.34 372.745319 
L 396.72 372.745319 
L 392.1 372.745319 
L 387.48 372.745319 
L 382.86 372.745319 
L 378.24 372.745319 
L 373.62 372.745319 
L 369 356.417035 
L 364.38 356.417035 
L 359.76 356.417035 
L 355.14 356.417035 
L 350.52 356.417035 
L 345.9 356.417035 
L 341.28 356.417035 
L 336.66 356.417035 
L 332.04 356.417035 
L 327.42 356.417035 
L 322.8 348.322222 
L 318.18 348.322222 
L 313.56 348.322222 
L 308.94 348.322222 
L 304.32 348.322222 
L 299.7 348.322222 
L 295.08 348.322222 
L 290.46 348.322222 
L 285.84 348.322222 
L 281.22 348.322222 
L 276.6 349.750109 
L 271.98 349.750109 
L 267.36 349.750109 
L 262.74 349.750109 
L 258.12 349.750109 
L 253.5 349.750109 
L 248.88 349.750109 
L 244.26 349.750109 
L 239.64 349.750109 
L 235.02 349.750109 
L 230.4 350.391357 
L 225.78 350.391357 
L 221.16 350.391357 
L 216.54 350.391357 
L 211.92 350.391357 
L 207.3 350.391357 
L 202.68 350.391357 
L 198.06 350.391357 
L 193.44 350.391357 
L 188.82 350.391357 
L 184.2 350.699476 
L 179.58 350.699476 
L 174.96 350.699476 
L 170.34 350.699476 
L 165.72 350.699476 
L 161.1 350.699476 
L 156.48 350.699476 
L 151.86 350.699476 
L 147.24 350.699476 
L 142.62 350.699476 
L 138 350.699476 
L 138 350.699476 
L 138 350.699476 
L 142.62 350.699476 
L 147.24 350.699476 
L 151.86 350.699476 
L 156.48 350.699476 
L 161.1 350.699476 
L 165.72 350.699476 
L 170.34 350.699476 
L 174.96 350.699476 
L 179.58 350.699476 
L 184.2 350.699476 
L 188.82 350.391357 
L 193.44 350.391357 
L 198.06 350.391357 
L 202.68 350.391357 
L 207.3 350.391357 
L 211.92 350.391357 
L 216.54 350.391357 
L 221.16 350.391357 
L 225.78 350.391357 
L 230.4 350.391357 
L 235.02 349.750109 
L 239.64 349.750109 
L 244.26 349.750109 
L 248.88 349.750109 
L 253.5 349.750109 
L 258.12 349.750109 
L 262.74 349.750109 
L 267.36 349.750109 
L 271.98 349.750109 
L 276.6 349.750109 
L 281.22 348.322222 
L 285.84 348.322222 
L 290.46 348.322222 
L 295.08 348.322222 
L 299.7 348.322222 
L 304.32 348.322222 
L 308.94 348.322222 
L 313.56 348.322222 
L 318.18 348.322222 
L 322.8 348.322222 
L 327.42 356.417035 
L 332.04 356.417035 
L 336.66 356.417035 
L 341.28 356.417035 
L 345.9 356.417035 
L 350.52 356.417035 
L 355.14 356.417035 
L 359.76 356.417035 
L 364.38 356.417035 
L 369 356.417035 
L 373.62 372.745319 
L 378.24 372.745319 
L 382.86 372.745319 
L 387.48 372.745319 
L 392.1 372.745319 
L 396.72 372.745319 
L 401.34 372.745319 
L 405.96 372.745319 
L 410.58 372.745319 
L 415.2 372.745319 
L 419.82 376.716377 
L 424.44 376.716377 
L 429.06 376.716377 
L 433.68 376.716377 
L 438.3 376.716377 
L 442.92 376.716377 
L 447.54 376.716377 
L 452.16 376.716377 
L 456.78 376.716377 
L 461.4 376.716377 
L 466.02 398.833556 
L 470.64 398.833556 
L 475.26 398.833556 
L 479.88 398.833556 
L 484.5 398.833556 
L 489.12 398.833556 
L 493.74 398.833556 
L 498.36 398.833556 
L 502.98 398.833556 
L 507.6 398.833556 
L 512.22 432.427653 
L 516.84 432.427653 
L 521.46 432.427653 
L 526.08 432.427653 
L 530.7 432.427653 
L 535.32 432.427653 
L 539.94 432.427653 
L 544.56 432.427653 
L 549.18 432.427653 
L 553.8 432.427653 
L 558.42 443.216505 
L 563.04 443.216505 
L 567.66 443.216505 
L 572.28 443.216505 
L 576.9 443.216505 
L 581.52 443.216505 
L 586.14 443.216505 
L 590.76 443.216505 
L 595.38 443.216505 
L 600 443.216505 
z
" clip-path="url(#pcef45e9f8e)" style="fill: #0000ff; fill-opacity: 0.25"/>
   </g>
   <g id="PolyCollection_2">
    <path d="M 600 534.618547 
L 600 534.618547 
L 595.38 534.618547 
L 590.76 534.618547 
L 586.14 534.618547 
L 581.52 534.618547 
L 576.9 534.618547 
L 572.28 534.618547 
L 567.66 534.618547 
L 563.04 534.618547 
L 558.42 534.618547 
L 553.8 518.446154 
L 549.18 518.446154 
L 544.56 518.446154 
L 539.94 518.446154 
L 535.32 518.446154 
L 530.7 518.446154 
L 526.08 518.446154 
L 521.46 518.446154 
L 516.84 518.446154 
L 512.22 518.446154 
L 507.6 474.52393 
L 502.98 474.52393 
L 498.36 474.52393 
L 493.74 474.52393 
L 489.12 474.52393 
L 484.5 474.52393 
L 479.88 474.52393 
L 475.26 474.52393 
L 470.64 474.52393 
L 466.02 474.52393 
L 461.4 442.513043 
L 456.78 442.513043 
L 452.16 442.513043 
L 447.54 442.513043 
L 442.92 442.513043 
L 438.3 442.513043 
L 433.68 442.513043 
L 429.06 442.513043 
L 424.44 442.513043 
L 419.82 442.513043 
L 415.2 432.702564 
L 410.58 432.702564 
L 405.96 432.702564 
L 401.34 432.702564 
L 396.72 432.702564 
L 392.1 432.702564 
L 387.48 432.702564 
L 382.86 432.702564 
L 378.24 432.702564 
L 373.62 432.702564 
L 369 413.585915 
L 364.38 413.585915 
L 359.76 413.585915 
L 355.14 413.585915 
L 350.52 413.585915 
L 345.9 413.585915 
L 341.28 413.585915 
L 336.66 413.585915 
L 332.04 413.585915 
L 327.42 413.585915 
L 322.8 404.840373 
L 318.18 404.840373 
L 313.56 404.840373 
L 308.94 404.840373 
L 304.32 404.840373 
L 299.7 404.840373 
L 295.08 404.840373 
L 290.46 404.840373 
L 285.84 404.840373 
L 281.22 404.840373 
L 276.6 407.009396 
L 271.98 407.009396 
L 267.36 407.009396 
L 262.74 407.009396 
L 258.12 407.009396 
L 253.5 407.009396 
L 248.88 407.009396 
L 244.26 407.009396 
L 239.64 407.009396 
L 235.02 407.009396 
L 230.4 408.062389 
L 225.78 408.062389 
L 221.16 408.062389 
L 216.54 408.062389 
L 211.92 408.062389 
L 207.3 408.062389 
L 202.68 408.062389 
L 198.06 408.062389 
L 193.44 408.062389 
L 188.82 408.062389 
L 184.2 408.474172 
L 179.58 408.474172 
L 174.96 408.474172 
L 170.34 408.474172 
L 165.72 408.474172 
L 161.1 408.474172 
L 156.48 408.474172 
L 151.86 408.474172 
L 147.24 408.474172 
L 142.62 408.474172 
L 138 408.474172 
L 138 408.474172 
L 138 408.474172 
L 142.62 408.474172 
L 147.24 408.474172 
L 151.86 408.474172 
L 156.48 408.474172 
L 161.1 408.474172 
L 165.72 408.474172 
L 170.34 408.474172 
L 174.96 408.474172 
L 179.58 408.474172 
L 184.2 408.474172 
L 188.82 408.062389 
L 193.44 408.062389 
L 198.06 408.062389 
L 202.68 408.062389 
L 207.3 408.062389 
L 211.92 408.062389 
L 216.54 408.062389 
L 221.16 408.062389 
L 225.78 408.062389 
L 230.4 408.062389 
L 235.02 407.009396 
L 239.64 407.009396 
L 244.26 407.009396 
L 248.88 407.009396 
L 253.5 407.009396 
L 258.12 407.009396 
L 262.74 407.009396 
L 267.36 407.009396 
L 271.98 407.009396 
L 276.6 407.009396 
L 281.22 404.840373 
L 285.84 404.840373 
L 290.46 404.840373 
L 295.08 404.840373 
L 299.7 404.840373 
L 304.32 404.840373 
L 308.94 404.840373 
L 313.56 404.840373 
L 318.18 404.840373 
L 322.8 404.840373 
L 327.42 413.585915 
L 332.04 413.585915 
L 336.66 413.585915 
L 341.28 413.585915 
L 345.9 413.585915 
L 350.52 413.585915 
L 355.14 413.585915 
L 359.76 413.585915 
L 364.38 413.585915 
L 369 413.585915 
L 373.62 432.702564 
L 378.24 432.702564 
L 382.86 432.702564 
L 387.48 432.702564 
L 392.1 432.702564 
L 396.72 432.702564 
L 401.34 432.702564 
L 405.96 432.702564 
L 410.58 432.702564 
L 415.2 432.702564 
L 419.82 442.513043 
L 424.44 442.513043 
L 429.06 442.513043 
L 433.68 442.513043 
L 438.3 442.513043 
L 442.92 442.513043 
L 447.54 442.513043 
L 452.16 442.513043 
L 456.78 442.513043 
L 461.4 442.513043 
L 466.02 474.52393 
L 470.64 474.52393 
L 475.26 474.52393 
L 479.88 474.52393 
L 484.5 474.52393 
L 489.12 474.52393 
L 493.74 474.52393 
L 498.36 474.52393 
L 502.98 474.52393 
L 507.6 474.52393 
L 512.22 518.446154 
L 516.84 518.446154 
L 521.46 518.446154 
L 526.08 518.446154 
L 530.7 518.446154 
L 535.32 518.446154 
L 539.94 518.446154 
L 544.56 518.446154 
L 549.18 518.446154 
L 553.8 518.446154 
L 558.42 534.618547 
L 563.04 534.618547 
L 567.66 534.618547 
L 572.28 534.618547 
L 576.9 534.618547 
L 581.52 534.618547 
L 586.14 534.618547 
L 590.76 534.618547 
L 595.38 534.618547 
L 600 534.618547 
z
" clip-path="url(#pcef45e9f8e)" style="fill: #0000ff; fill-opacity: 0.25"/>
   </g>
   <g id="PolyCollection_3">
    <path d="M 600 551.765563 
L 600 551.765563 
L 595.38 551.765563 
L 590.76 551.765563 
L 586.14 551.765563 
L 581.52 551.765563 
L 576.9 551.765563 
L 572.28 551.765563 
L 567.66 551.765563 
L 563.04 551.765563 
L 558.42 551.765563 
L 553.8 541.056954 
L 549.18 541.056954 
L 544.56 541.056954 
L 539.94 541.056954 
L 535.32 541.056954 
L 530.7 541.056954 
L 526.08 541.056954 
L 521.46 541.056954 
L 516.84 541.056954 
L 512.22 541.056954 
L 507.6 510.970861 
L 502.98 510.970861 
L 498.36 510.970861 
L 493.74 510.970861 
L 489.12 510.970861 
L 484.5 510.970861 
L 479.88 510.970861 
L 475.26 510.970861 
L 470.64 510.970861 
L 466.02 510.970861 
L 461.4 486.49404 
L 456.78 486.49404 
L 452.16 486.49404 
L 447.54 486.49404 
L 442.92 486.49404 
L 438.3 486.49404 
L 433.68 486.49404 
L 429.06 486.49404 
L 424.44 486.49404 
L 419.82 486.49404 
L 415.2 469.156291 
L 410.58 469.156291 
L 405.96 469.156291 
L 401.34 469.156291 
L 396.72 469.156291 
L 392.1 469.156291 
L 387.48 469.156291 
L 382.86 469.156291 
L 378.24 469.156291 
L 373.62 469.156291 
L 369 438.560265 
L 364.38 438.560265 
L 359.76 438.560265 
L 355.14 438.560265 
L 350.52 438.560265 
L 345.9 438.560265 
L 341.28 438.560265 
L 336.66 438.560265 
L 332.04 438.560265 
L 327.42 438.560265 
L 322.8 415.103311 
L 318.18 415.103311 
L 313.56 415.103311 
L 308.94 415.103311 
L 304.32 415.103311 
L 299.7 415.103311 
L 295.08 415.103311 
L 290.46 415.103311 
L 285.84 415.103311 
L 281.22 415.103311 
L 276.6 409.49404 
L 271.98 409.49404 
L 267.36 409.49404 
L 262.74 409.49404 
L 258.12 409.49404 
L 253.5 409.49404 
L 248.88 409.49404 
L 244.26 409.49404 
L 239.64 409.49404 
L 235.02 409.49404 
L 230.4 408.474172 
L 225.78 408.474172 
L 221.16 408.474172 
L 216.54 408.474172 
L 211.92 408.474172 
L 207.3 408.474172 
L 202.68 408.474172 
L 198.06 408.474172 
L 193.44 408.474172 
L 188.82 408.474172 
L 184.2 408.474172 
L 179.58 408.474172 
L 174.96 408.474172 
L 170.34 408.474172 
L 165.72 408.474172 
L 161.1 408.474172 
L 156.48 408.474172 
L 151.86 408.474172 
L 147.24 408.474172 
L 142.62 408.474172 
L 138 408.474172 
L 138 408.474172 
L 138 408.474172 
L 142.62 408.474172 
L 147.24 408.474172 
L 151.86 408.474172 
L 156.48 408.474172 
L 161.1 408.474172 
L 165.72 408.474172 
L 170.34 408.474172 
L 174.96 408.474172 
L 179.58 408.474172 
L 184.2 408.474172 
L 188.82 408.474172 
L 193.44 408.474172 
L 198.06 408.474172 
L 202.68 408.474172 
L 207.3 408.474172 
L 211.92 408.474172 
L 216.54 408.474172 
L 221.16 408.474172 
L 225.78 408.474172 
L 230.4 408.474172 
L 235.02 409.49404 
L 239.64 409.49404 
L 244.26 409.49404 
L 248.88 409.49404 
L 253.5 409.49404 
L 258.12 409.49404 
L 262.74 409.49404 
L 267.36 409.49404 
L 271.98 409.49404 
L 276.6 409.49404 
L 281.22 415.103311 
L 285.84 415.103311 
L 290.46 415.103311 
L 295.08 415.103311 
L 299.7 415.103311 
L 304.32 415.103311 
L 308.94 415.103311 
L 313.56 415.103311 
L 318.18 415.103311 
L 322.8 415.103311 
L 327.42 438.560265 
L 332.04 438.560265 
L 336.66 438.560265 
L 341.28 438.560265 
L 345.9 438.560265 
L 350.52 438.560265 
L 355.14 438.560265 
L 359.76 438.560265 
L 364.38 438.560265 
L 369 438.560265 
L 373.62 469.156291 
L 378.24 469.156291 
L 382.86 469.156291 
L 387.48 469.156291 
L 392.1 469.156291 
L 396.72 469.156291 
L 401.34 469.156291 
L 405.96 469.156291 
L 410.58 469.156291 
L 415.2 469.156291 
L 419.82 486.49404 
L 424.44 486.49404 
L 429.06 486.49404 
L 433.68 486.49404 
L 438.3 486.49404 
L 442.92 486.49404 
L 447.54 486.49404 
L 452.16 486.49404 
L 456.78 486.49404 
L 461.4 486.49404 
L 466.02 510.970861 
L 470.64 510.970861 
L 475.26 510.970861 
L 479.88 510.970861 
L 484.5 510.970861 
L 489.12 510.970861 
L 493.74 510.970861 
L 498.36 510.970861 
L 502.98 510.970861 
L 507.6 510.970861 
L 512.22 541.056954 
L 516.84 541.056954 
L 521.46 541.056954 
L 526.08 541.056954 
L 530.7 541.056954 
L 535.32 541.056954 
L 539.94 541.056954 
L 544.56 541.056954 
L 549.18 541.056954 
L 553.8 541.056954 
L 558.42 551.765563 
L 563.04 551.765563 
L 567.66 551.765563 
L 572.28 551.765563 
L 576.9 551.765563 
L 581.52 551.765563 
L 586.14 551.765563 
L 590.76 551.765563 
L 595.38 551.765563 
L 600 551.765563 
z
" clip-path="url(#pcef45e9f8e)" style="fill: #0000ff; fill-opacity: 0.25"/>
   </g>
   <g id="PolyCollection_4">
    <path d="M 600 544.621893 
L 600 544.621893 
L 595.38 544.621893 
L 590.76 544.621893 
L 586.14 544.621893 
L 581.52 544.621893 
L 576.9 544.621893 
L 572.28 544.621893 
L 567.66 544.621893 
L 563.04 544.621893 
L 558.42 544.621893 
L 553.8 531.722489 
L 549.18 531.722489 
L 544.56 531.722489 
L 539.94 531.722489 
L 535.32 531.722489 
L 530.7 531.722489 
L 526.08 531.722489 
L 521.46 531.722489 
L 516.84 531.722489 
L 512.22 531.722489 
L 507.6 496.007938 
L 502.98 496.007938 
L 498.36 496.007938 
L 493.74 496.007938 
L 489.12 496.007938 
L 484.5 496.007938 
L 479.88 496.007938 
L 475.26 496.007938 
L 470.64 496.007938 
L 466.02 496.007938 
L 461.4 468.220645 
L 456.78 468.220645 
L 452.16 468.220645 
L 447.54 468.220645 
L 442.92 468.220645 
L 438.3 468.220645 
L 433.68 468.220645 
L 429.06 468.220645 
L 424.44 468.220645 
L 419.82 468.220645 
L 415.2 453.241791 
L 410.58 453.241791 
L 405.96 453.241791 
L 401.34 453.241791 
L 396.72 453.241791 
L 392.1 453.241791 
L 387.48 453.241791 
L 382.86 453.241791 
L 378.24 453.241791 
L 373.62 453.241791 
L 369 426.99834 
L 364.38 426.99834 
L 359.76 426.99834 
L 355.14 426.99834 
L 350.52 426.99834 
L 345.9 426.99834 
L 341.28 426.99834 
L 336.66 426.99834 
L 332.04 426.99834 
L 327.42 426.99834 
L 322.8 410.114464 
L 318.18 410.114464 
L 313.56 410.114464 
L 308.94 410.114464 
L 304.32 410.114464 
L 299.7 410.114464 
L 295.08 410.114464 
L 290.46 410.114464 
L 285.84 410.114464 
L 281.22 410.114464 
L 276.6 408.26 
L 271.98 408.26 
L 267.36 408.26 
L 262.74 408.26 
L 258.12 408.26 
L 253.5 408.26 
L 248.88 408.26 
L 244.26 408.26 
L 239.64 408.26 
L 235.02 408.26 
L 230.4 408.268508 
L 225.78 408.268508 
L 221.16 408.268508 
L 216.54 408.268508 
L 211.92 408.268508 
L 207.3 408.268508 
L 202.68 408.268508 
L 198.06 408.268508 
L 193.44 408.268508 
L 188.82 408.268508 
L 184.2 408.474172 
L 179.58 408.474172 
L 174.96 408.474172 
L 170.34 408.474172 
L 165.72 408.474172 
L 161.1 408.474172 
L 156.48 408.474172 
L 151.86 408.474172 
L 147.24 408.474172 
L 142.62 408.474172 
L 138 408.474172 
L 138 408.474172 
L 138 408.474172 
L 142.62 408.474172 
L 147.24 408.474172 
L 151.86 408.474172 
L 156.48 408.474172 
L 161.1 408.474172 
L 165.72 408.474172 
L 170.34 408.474172 
L 174.96 408.474172 
L 179.58 408.474172 
L 184.2 408.474172 
L 188.82 408.268508 
L 193.44 408.268508 
L 198.06 408.268508 
L 202.68 408.268508 
L 207.3 408.268508 
L 211.92 408.268508 
L 216.54 408.268508 
L 221.16 408.268508 
L 225.78 408.268508 
L 230.4 408.268508 
L 235.02 408.26 
L 239.64 408.26 
L 244.26 408.26 
L 248.88 408.26 
L 253.5 408.26 
L 258.12 408.26 
L 262.74 408.26 
L 267.36 408.26 
L 271.98 408.26 
L 276.6 408.26 
L 281.22 410.114464 
L 285.84 410.114464 
L 290.46 410.114464 
L 295.08 410.114464 
L 299.7 410.114464 
L 304.32 410.114464 
L 308.94 410.114464 
L 313.56 410.114464 
L 318.18 410.114464 
L 322.8 410.114464 
L 327.42 426.99834 
L 332.04 426.99834 
L 336.66 426.99834 
L 341.28 426.99834 
L 345.9 426.99834 
L 350.52 426.99834 
L 355.14 426.99834 
L 359.76 426.99834 
L 364.38 426.99834 
L 369 426.99834 
L 373.62 453.241791 
L 378.24 453.241791 
L 382.86 453.241791 
L 387.48 453.241791 
L 392.1 453.241791 
L 396.72 453.241791 
L 401.34 453.241791 
L 405.96 453.241791 
L 410.58 453.241791 
L 415.2 453.241791 
L 419.82 468.220645 
L 424.44 468.220645 
L 429.06 468.220645 
L 433.68 468.220645 
L 438.3 468.220645 
L 442.92 468.220645 
L 447.54 468.220645 
L 452.16 468.220645 
L 456.78 468.220645 
L 461.4 468.220645 
L 466.02 496.007938 
L 470.64 496.007938 
L 475.26 496.007938 
L 479.88 496.007938 
L 484.5 496.007938 
L 489.12 496.007938 
L 493.74 496.007938 
L 498.36 496.007938 
L 502.98 496.007938 
L 507.6 496.007938 
L 512.22 531.722489 
L 516.84 531.722489 
L 521.46 531.722489 
L 526.08 531.722489 
L 530.7 531.722489 
L 535.32 531.722489 
L 539.94 531.722489 
L 544.56 531.722489 
L 549.18 531.722489 
L 553.8 531.722489 
L 558.42 544.621893 
L 563.04 544.621893 
L 567.66 544.621893 
L 572.28 544.621893 
L 576.9 544.621893 
L 581.52 544.621893 
L 586.14 544.621893 
L 590.76 544.621893 
L 595.38 544.621893 
L 600 544.621893 
z
" clip-path="url(#pcef45e9f8e)" style="fill: #0000ff; fill-opacity: 0.25"/>
   </g>
   <g id="PolyCollection_5">
    <path d="M 600 789.832043 
L 600 789.832043 
L 595.38 789.832043 
L 590.76 789.832043 
L 586.14 789.832043 
L 581.52 789.832043 
L 576.9 789.832043 
L 572.28 789.832043 
L 567.66 789.832043 
L 563.04 789.832043 
L 558.42 789.832043 
L 553.8 766.946681 
L 549.18 766.946681 
L 544.56 766.946681 
L 539.94 766.946681 
L 535.32 766.946681 
L 530.7 766.946681 
L 526.08 766.946681 
L 521.46 766.946681 
L 516.84 766.946681 
L 512.22 766.946681 
L 507.6 699.774143 
L 502.98 699.774143 
L 498.36 699.774143 
L 493.74 699.774143 
L 489.12 699.774143 
L 484.5 699.774143 
L 479.88 699.774143 
L 475.26 699.774143 
L 470.64 699.774143 
L 466.02 699.774143 
L 461.4 653.616141 
L 456.78 653.616141 
L 452.16 653.616141 
L 447.54 653.616141 
L 442.92 653.616141 
L 438.3 653.616141 
L 433.68 653.616141 
L 429.06 653.616141 
L 424.44 653.616141 
L 419.82 653.616141 
L 415.2 641.256231 
L 410.58 641.256231 
L 405.96 641.256231 
L 401.34 641.256231 
L 396.72 641.256231 
L 392.1 641.256231 
L 387.48 641.256231 
L 382.86 641.256231 
L 378.24 641.256231 
L 373.62 641.256231 
L 369 606.020397 
L 364.38 606.020397 
L 359.76 606.020397 
L 355.14 606.020397 
L 350.52 606.020397 
L 345.9 606.020397 
L 341.28 606.020397 
L 336.66 606.020397 
L 332.04 606.020397 
L 327.42 606.020397 
L 322.8 586.319425 
L 318.18 586.319425 
L 313.56 586.319425 
L 308.94 586.319425 
L 304.32 586.319425 
L 299.7 586.319425 
L 295.08 586.319425 
L 290.46 586.319425 
L 285.84 586.319425 
L 281.22 586.319425 
L 276.6 587.375671 
L 271.98 587.375671 
L 267.36 587.375671 
L 262.74 587.375671 
L 258.12 587.375671 
L 253.5 587.375671 
L 248.88 587.375671 
L 244.26 587.375671 
L 239.64 587.375671 
L 235.02 587.375671 
L 230.4 588.268134 
L 225.78 588.268134 
L 221.16 588.268134 
L 216.54 588.268134 
L 211.92 588.268134 
L 207.3 588.268134 
L 202.68 588.268134 
L 198.06 588.268134 
L 193.44 588.268134 
L 188.82 588.268134 
L 184.2 588.807506 
L 179.58 588.807506 
L 174.96 588.807506 
L 170.34 588.807506 
L 165.72 588.807506 
L 161.1 588.807506 
L 156.48 588.807506 
L 151.86 588.807506 
L 147.24 588.807506 
L 142.62 588.807506 
L 138 588.807506 
L 138 588.807506 
L 138 588.807506 
L 142.62 588.807506 
L 147.24 588.807506 
L 151.86 588.807506 
L 156.48 588.807506 
L 161.1 588.807506 
L 165.72 588.807506 
L 170.34 588.807506 
L 174.96 588.807506 
L 179.58 588.807506 
L 184.2 588.807506 
L 188.82 588.268134 
L 193.44 588.268134 
L 198.06 588.268134 
L 202.68 588.268134 
L 207.3 588.268134 
L 211.92 588.268134 
L 216.54 588.268134 
L 221.16 588.268134 
L 225.78 588.268134 
L 230.4 588.268134 
L 235.02 587.375671 
L 239.64 587.375671 
L 244.26 587.375671 
L 248.88 587.375671 
L 253.5 587.375671 
L 258.12 587.375671 
L 262.74 587.375671 
L 267.36 587.375671 
L 271.98 587.375671 
L 276.6 587.375671 
L 281.22 586.319425 
L 285.84 586.319425 
L 290.46 586.319425 
L 295.08 586.319425 
L 299.7 586.319425 
L 304.32 586.319425 
L 308.94 586.319425 
L 313.56 586.319425 
L 318.18 586.319425 
L 322.8 586.319425 
L 327.42 606.020397 
L 332.04 606.020397 
L 336.66 606.020397 
L 341.28 606.020397 
L 345.9 606.020397 
L 350.52 606.020397 
L 355.14 606.020397 
L 359.76 606.020397 
L 364.38 606.020397 
L 369 606.020397 
L 373.62 641.256231 
L 378.24 641.256231 
L 382.86 641.256231 
L 387.48 641.256231 
L 392.1 641.256231 
L 396.72 641.256231 
L 401.34 641.256231 
L 405.96 641.256231 
L 410.58 641.256231 
L 415.2 641.256231 
L 419.82 653.616141 
L 424.44 653.616141 
L 429.06 653.616141 
L 433.68 653.616141 
L 438.3 653.616141 
L 442.92 653.616141 
L 447.54 653.616141 
L 452.16 653.616141 
L 456.78 653.616141 
L 461.4 653.616141 
L 466.02 699.774143 
L 470.64 699.774143 
L 475.26 699.774143 
L 479.88 699.774143 
L 484.5 699.774143 
L 489.12 699.774143 
L 493.74 699.774143 
L 498.36 699.774143 
L 502.98 699.774143 
L 507.6 699.774143 
L 512.22 766.946681 
L 516.84 766.946681 
L 521.46 766.946681 
L 526.08 766.946681 
L 530.7 766.946681 
L 535.32 766.946681 
L 539.94 766.946681 
L 544.56 766.946681 
L 549.18 766.946681 
L 553.8 766.946681 
L 558.42 789.832043 
L 563.04 789.832043 
L 567.66 789.832043 
L 572.28 789.832043 
L 576.9 789.832043 
L 581.52 789.832043 
L 586.14 789.832043 
L 590.76 789.832043 
L 595.38 789.832043 
L 600 789.832043 
z
" clip-path="url(#pcef45e9f8e)" style="fill: #0000ff; fill-opacity: 0.25"/>
   </g>
   <g id="PolyCollection_6">
    <path d="M 600 369.204853 
L 600 369.204853 
L 595.38 369.204853 
L 590.76 369.204853 
L 586.14 369.204853 
L 581.52 369.204853 
L 576.9 369.204853 
L 572.28 369.204853 
L 567.66 369.204853 
L 563.04 369.204853 
L 558.42 369.204853 
L 553.8 380.502439 
L 549.18 380.502439 
L 544.56 380.502439 
L 539.94 380.502439 
L 535.32 380.502439 
L 530.7 380.502439 
L 526.08 380.502439 
L 521.46 380.502439 
L 516.84 380.502439 
L 512.22 380.502439 
L 507.6 413.598322 
L 502.98 413.598322 
L 498.36 413.598322 
L 493.74 413.598322 
L 489.12 413.598322 
L 484.5 413.598322 
L 479.88 413.598322 
L 475.26 413.598322 
L 470.64 413.598322 
L 466.02 413.598322 
L 461.4 431.674286 
L 456.78 431.674286 
L 452.16 431.674286 
L 447.54 431.674286 
L 442.92 431.674286 
L 438.3 431.674286 
L 433.68 431.674286 
L 429.06 431.674286 
L 424.44 431.674286 
L 419.82 431.674286 
L 415.2 424.840129 
L 410.58 424.840129 
L 405.96 424.840129 
L 401.34 424.840129 
L 396.72 424.840129 
L 392.1 424.840129 
L 387.48 424.840129 
L 382.86 424.840129 
L 378.24 424.840129 
L 373.62 424.840129 
L 369 427.463671 
L 364.38 427.463671 
L 359.76 427.463671 
L 355.14 427.463671 
L 350.52 427.463671 
L 345.9 427.463671 
L 341.28 427.463671 
L 336.66 427.463671 
L 332.04 427.463671 
L 327.42 427.463671 
L 322.8 423.300441 
L 318.18 423.300441 
L 313.56 423.300441 
L 308.94 423.300441 
L 304.32 423.300441 
L 299.7 423.300441 
L 295.08 423.300441 
L 290.46 423.300441 
L 285.84 423.300441 
L 281.22 423.300441 
L 276.6 416.701523 
L 271.98 416.701523 
L 267.36 416.701523 
L 262.74 416.701523 
L 258.12 416.701523 
L 253.5 416.701523 
L 248.88 416.701523 
L 244.26 416.701523 
L 239.64 416.701523 
L 235.02 416.701523 
L 230.4 414.80361 
L 225.78 414.80361 
L 221.16 414.80361 
L 216.54 414.80361 
L 211.92 414.80361 
L 207.3 414.80361 
L 202.68 414.80361 
L 198.06 414.80361 
L 193.44 414.80361 
L 188.82 414.80361 
L 184.2 414.266667 
L 179.58 414.266667 
L 174.96 414.266667 
L 170.34 414.266667 
L 165.72 414.266667 
L 161.1 414.266667 
L 156.48 414.266667 
L 151.86 414.266667 
L 147.24 414.266667 
L 142.62 414.266667 
L 138 414.266667 
L 138 414.266667 
L 138 414.266667 
L 142.62 414.266667 
L 147.24 414.266667 
L 151.86 414.266667 
L 156.48 414.266667 
L 161.1 414.266667 
L 165.72 414.266667 
L 170.34 414.266667 
L 174.96 414.266667 
L 179.58 414.266667 
L 184.2 414.266667 
L 188.82 414.80361 
L 193.44 414.80361 
L 198.06 414.80361 
L 202.68 414.80361 
L 207.3 414.80361 
L 211.92 414.80361 
L 216.54 414.80361 
L 221.16 414.80361 
L 225.78 414.80361 
L 230.4 414.80361 
L 235.02 416.701523 
L 239.64 416.701523 
L 244.26 416.701523 
L 248.88 416.701523 
L 253.5 416.701523 
L 258.12 416.701523 
L 262.74 416.701523 
L 267.36 416.701523 
L 271.98 416.701523 
L 276.6 416.701523 
L 281.22 423.300441 
L 285.84 423.300441 
L 290.46 423.300441 
L 295.08 423.300441 
L 299.7 423.300441 
L 304.32 423.300441 
L 308.94 423.300441 
L 313.56 423.300441 
L 318.18 423.300441 
L 322.8 423.300441 
L 327.42 427.463671 
L 332.04 427.463671 
L 336.66 427.463671 
L 341.28 427.463671 
L 345.9 427.463671 
L 350.52 427.463671 
L 355.14 427.463671 
L 359.76 427.463671 
L 364.38 427.463671 
L 369 427.463671 
L 373.62 424.840129 
L 378.24 424.840129 
L 382.86 424.840129 
L 387.48 424.840129 
L 392.1 424.840129 
L 396.72 424.840129 
L 401.34 424.840129 
L 405.96 424.840129 
L 410.58 424.840129 
L 415.2 424.840129 
L 419.82 431.674286 
L 424.44 431.674286 
L 429.06 431.674286 
L 433.68 431.674286 
L 438.3 431.674286 
L 442.92 431.674286 
L 447.54 431.674286 
L 452.16 431.674286 
L 456.78 431.674286 
L 461.4 431.674286 
L 466.02 413.598322 
L 470.64 413.598322 
L 475.26 413.598322 
L 479.88 413.598322 
L 484.5 413.598322 
L 489.12 413.598322 
L 493.74 413.598322 
L 498.36 413.598322 
L 502.98 413.598322 
L 507.6 413.598322 
L 512.22 380.502439 
L 516.84 380.502439 
L 521.46 380.502439 
L 526.08 380.502439 
L 530.7 380.502439 
L 535.32 380.502439 
L 539.94 380.502439 
L 544.56 380.502439 
L 549.18 380.502439 
L 553.8 380.502439 
L 558.42 369.204853 
L 563.04 369.204853 
L 567.66 369.204853 
L 572.28 369.204853 
L 576.9 369.204853 
L 581.52 369.204853 
L 586.14 369.204853 
L 590.76 369.204853 
L 595.38 369.204853 
L 600 369.204853 
z
" clip-path="url(#pcef45e9f8e)" style="fill: #0000ff; fill-opacity: 0.25"/>
   </g>
   <g id="matplotlib.axis_1">
    <g id="xtick_1">
     <g id="line2d_1">
      <path d="M 138 640.8 
L 138 86.4 
" clip-path="url(#pcef45e9f8e)" style="fill: none; stroke: #b0b0b0; stroke-width: 0.8; stroke-linecap: square"/>
     </g>
     <g id="line2d_2">
      <defs>
       <path id="mea47c940b5" d="M 0 0 
L 0 3.5 
" style="stroke: #000000; stroke-width: 0.8"/>
      </defs>
      <g>
       <use xlink:href="#mea47c940b5" x="138" y="640.8" style="stroke: #000000; stroke-width: 0.8"/>
      </g>
     </g>
     <g id="text_1">
      <!-- 0.0 -->
      <g transform="translate(130.048438 655.398438) scale(0.1 -0.1)">
       <defs>
        <path id="DejaVuSans-30" d="M 2034 4250 
Q 1547 4250 1301 3770 
Q 1056 3291 1056 2328 
Q 1056 1369 1301 889 
Q 1547 409 2034 409 
Q 2525 409 2770 889 
Q 3016 1369 3016 2328 
Q 3016 3291 2770 3770 
Q 2525 4250 2034 4250 
z
M 2034 4750 
Q 2819 4750 3233 4129 
Q 3647 3509 3647 2328 
Q 3647 1150 3233 529 
Q 2819 -91 2034 -91 
Q 1250 -91 836 529 
Q 422 1150 422 2328 
Q 422 3509 836 4129 
Q 1250 4750 2034 4750 
z
" transform="scale(0.015625)"/>
        <path id="DejaVuSans-2e" d="M 684 794 
L 1344 794 
L 1344 0 
L 684 0 
L 684 794 
z
" transform="scale(0.015625)"/>
       </defs>
       <use xlink:href="#DejaVuSans-30"/>
       <use xlink:href="#DejaVuSans-2e" x="63.623047"/>
       <use xlink:href="#DejaVuSans-30" x="95.410156"/>
      </g>
     </g>
    </g>
    <g id="xtick_2">
     <g id="line2d_3">
      <path d="M 230.4 640.8 
L 230.4 86.4 
" clip-path="url(#pcef45e9f8e)" style="fill: none; stroke: #b0b0b0; stroke-width: 0.8; stroke-linecap: square"/>
     </g>
     <g id="line2d_4">
      <g>
       <use xlink:href="#mea47c940b5" x="230.4" y="640.8" style="stroke: #000000; stroke-width: 0.8"/>
      </g>
     </g>
     <g id="text_2">
      <!-- 0.2 -->
      <g transform="translate(222.448437 655.398438) scale(0.1 -0.1)">
       <defs>
        <path id="DejaVuSans-32" d="M 1228 531 
L 3431 531 
L 3431 0 
L 469 0 
L 469 531 
Q 828 903 1448 1529 
Q 2069 2156 2228 2338 
Q 2531 2678 2651 2914 
Q 2772 3150 2772 3378 
Q 2772 3750 2511 3984 
Q 2250 4219 1831 4219 
Q 1534 4219 1204 4116 
Q 875 4013 500 3803 
L 500 4441 
Q 881 4594 1212 4672 
Q 1544 4750 1819 4750 
Q 2544 4750 2975 4387 
Q 3406 4025 3406 3419 
Q 3406 3131 3298 2873 
Q 3191 2616 2906 2266 
Q 2828 2175 2409 1742 
Q 1991 1309 1228 531 
z
" transform="scale(0.015625)"/>
       </defs>
       <use xlink:href="#DejaVuSans-30"/>
       <use xlink:href="#DejaVuSans-2e" x="63.623047"/>
       <use xlink:href="#DejaVuSans-32" x="95.410156"/>
      </g>
     </g>
    </g>
    <g id="xtick_3">
     <g id="line2d_5">
      <path d="M 322.8 640.8 
L 322.8 86.4 
" clip-path="url(#pcef45e9f8e)" style="fill: none; stroke: #b0b0b0; stroke-width: 0.8; stroke-linecap: square"/>
     </g>
     <g id="line2d_6">
      <g>
       <use xlink:href="#mea47c940b5" x="322.8" y="640.8" style="stroke: #000000; stroke-width: 0.8"/>
      </g>
     </g>
     <g id="text_3">
      <!-- 0.4 -->
      <g transform="translate(314.848437 655.398438) scale(0.1 -0.1)">
       <defs>
        <path id="DejaVuSans-34" d="M 2419 4116 
L 825 1625 
L 2419 1625 
L 2419 4116 
z
M 2253 4666 
L 3047 4666 
L 3047 1625 
L 3713 1625 
L 3713 1100 
L 3047 1100 
L 3047 0 
L 2419 0 
L 2419 1100 
L 313 1100 
L 313 1709 
L 2253 4666 
z
" transform="scale(0.015625)"/>
       </defs>
       <use xlink:href="#DejaVuSans-30"/>
       <use xlink:href="#DejaVuSans-2e" x="63.623047"/>
       <use xlink:href="#DejaVuSans-34" x="95.410156"/>
      </g>
     </g>
    </g>
    <g id="xtick_4">
     <g id="line2d_7">
      <path d="M 415.2 640.8 
L 415.2 86.4 
" clip-path="url(#pcef45e9f8e)" style="fill: none; stroke: #b0b0b0; stroke-width: 0.8; stroke-linecap: square"/>
     </g>
     <g id="line2d_8">
      <g>
       <use xlink:href="#mea47c940b5" x="415.2" y="640.8" style="stroke: #000000; stroke-width: 0.8"/>
      </g>
     </g>
     <g id="text_4">
      <!-- 0.6 -->
      <g transform="translate(407.248437 655.398438) scale(0.1 -0.1)">
       <defs>
        <path id="DejaVuSans-36" d="M 2113 2584 
Q 1688 2584 1439 2293 
Q 1191 2003 1191 1497 
Q 1191 994 1439 701 
Q 1688 409 2113 409 
Q 2538 409 2786 701 
Q 3034 994 3034 1497 
Q 3034 2003 2786 2293 
Q 2538 2584 2113 2584 
z
M 3366 4563 
L 3366 3988 
Q 3128 4100 2886 4159 
Q 2644 4219 2406 4219 
Q 1781 4219 1451 3797 
Q 1122 3375 1075 2522 
Q 1259 2794 1537 2939 
Q 1816 3084 2150 3084 
Q 2853 3084 3261 2657 
Q 3669 2231 3669 1497 
Q 3669 778 3244 343 
Q 2819 -91 2113 -91 
Q 1303 -91 875 529 
Q 447 1150 447 2328 
Q 447 3434 972 4092 
Q 1497 4750 2381 4750 
Q 2619 4750 2861 4703 
Q 3103 4656 3366 4563 
z
" transform="scale(0.015625)"/>
       </defs>
       <use xlink:href="#DejaVuSans-30"/>
       <use xlink:href="#DejaVuSans-2e" x="63.623047"/>
       <use xlink:href="#DejaVuSans-36" x="95.410156"/>
      </g>
     </g>
    </g>
    <g id="xtick_5">
     <g id="line2d_9">
      <path d="M 507.6 640.8 
L 507.6 86.4 
" clip-path="url(#pcef45e9f8e)" style="fill: none; stroke: #b0b0b0; stroke-width: 0.8; stroke-linecap: square"/>
     </g>
     <g id="line2d_10">
      <g>
       <use xlink:href="#mea47c940b5" x="507.6" y="640.8" style="stroke: #000000; stroke-width: 0.8"/>
      </g>
     </g>
     <g id="text_5">
      <!-- 0.8 -->
      <g transform="translate(499.648437 655.398438) scale(0.1 -0.1)">
       <defs>
        <path id="DejaVuSans-38" d="M 2034 2216 
Q 1584 2216 1326 1975 
Q 1069 1734 1069 1313 
Q 1069 891 1326 650 
Q 1584 409 2034 409 
Q 2484 409 2743 651 
Q 3003 894 3003 1313 
Q 3003 1734 2745 1975 
Q 2488 2216 2034 2216 
z
M 1403 2484 
Q 997 2584 770 2862 
Q 544 3141 544 3541 
Q 544 4100 942 4425 
Q 1341 4750 2034 4750 
Q 2731 4750 3128 4425 
Q 3525 4100 3525 3541 
Q 3525 3141 3298 2862 
Q 3072 2584 2669 2484 
Q 3125 2378 3379 2068 
Q 3634 1759 3634 1313 
Q 3634 634 3220 271 
Q 2806 -91 2034 -91 
Q 1263 -91 848 271 
Q 434 634 434 1313 
Q 434 1759 690 2068 
Q 947 2378 1403 2484 
z
M 1172 3481 
Q 1172 3119 1398 2916 
Q 1625 2713 2034 2713 
Q 2441 2713 2670 2916 
Q 2900 3119 2900 3481 
Q 2900 3844 2670 4047 
Q 2441 4250 2034 4250 
Q 1625 4250 1398 4047 
Q 1172 3844 1172 3481 
z
" transform="scale(0.015625)"/>
       </defs>
       <use xlink:href="#DejaVuSans-30"/>
       <use xlink:href="#DejaVuSans-2e" x="63.623047"/>
       <use xlink:href="#DejaVuSans-38" x="95.410156"/>
      </g>
     </g>
    </g>
    <g id="xtick_6">
     <g id="line2d_11">
      <path d="M 600 640.8 
L 600 86.4 
" clip-path="url(#pcef45e9f8e)" style="fill: none; stroke: #b0b0b0; stroke-width: 0.8; stroke-linecap: square"/>
     </g>
     <g id="line2d_12">
      <g>
       <use xlink:href="#mea47c940b5" x="600" y="640.8" style="stroke: #000000; stroke-width: 0.8"/>
      </g>
     </g>
     <g id="text_6">
      <!-- 1.0 -->
      <g transform="translate(592.048437 655.398438) scale(0.1 -0.1)">
       <defs>
        <path id="DejaVuSans-31" d="M 794 531 
L 1825 531 
L 1825 4091 
L 703 3866 
L 703 4441 
L 1819 4666 
L 2450 4666 
L 2450 531 
L 3481 531 
L 3481 0 
L 794 0 
L 794 531 
z
" transform="scale(0.015625)"/>
       </defs>
       <use xlink:href="#DejaVuSans-31"/>
       <use xlink:href="#DejaVuSans-2e" x="63.623047"/>
       <use xlink:href="#DejaVuSans-30" x="95.410156"/>
      </g>
     </g>
    </g>
    <g id="text_7">
     <!-- Threshold -->
     <g transform="translate(344.361719 669.076563) scale(0.1 -0.1)">
      <defs>
       <path id="DejaVuSans-54" d="M -19 4666 
L 3928 4666 
L 3928 4134 
L 2272 4134 
L 2272 0 
L 1638 0 
L 1638 4134 
L -19 4134 
L -19 4666 
z
" transform="scale(0.015625)"/>
       <path id="DejaVuSans-68" d="M 3513 2113 
L 3513 0 
L 2938 0 
L 2938 2094 
Q 2938 2591 2744 2837 
Q 2550 3084 2163 3084 
Q 1697 3084 1428 2787 
Q 1159 2491 1159 1978 
L 1159 0 
L 581 0 
L 581 4863 
L 1159 4863 
L 1159 2956 
Q 1366 3272 1645 3428 
Q 1925 3584 2291 3584 
Q 2894 3584 3203 3211 
Q 3513 2838 3513 2113 
z
" transform="scale(0.015625)"/>
       <path id="DejaVuSans-72" d="M 2631 2963 
Q 2534 3019 2420 3045 
Q 2306 3072 2169 3072 
Q 1681 3072 1420 2755 
Q 1159 2438 1159 1844 
L 1159 0 
L 581 0 
L 581 3500 
L 1159 3500 
L 1159 2956 
Q 1341 3275 1631 3429 
Q 1922 3584 2338 3584 
Q 2397 3584 2469 3576 
Q 2541 3569 2628 3553 
L 2631 2963 
z
" transform="scale(0.015625)"/>
       <path id="DejaVuSans-65" d="M 3597 1894 
L 3597 1613 
L 953 1613 
Q 991 1019 1311 708 
Q 1631 397 2203 397 
Q 2534 397 2845 478 
Q 3156 559 3463 722 
L 3463 178 
Q 3153 47 2828 -22 
Q 2503 -91 2169 -91 
Q 1331 -91 842 396 
Q 353 884 353 1716 
Q 353 2575 817 3079 
Q 1281 3584 2069 3584 
Q 2775 3584 3186 3129 
Q 3597 2675 3597 1894 
z
M 3022 2063 
Q 3016 2534 2758 2815 
Q 2500 3097 2075 3097 
Q 1594 3097 1305 2825 
Q 1016 2553 972 2059 
L 3022 2063 
z
" transform="scale(0.015625)"/>
       <path id="DejaVuSans-73" d="M 2834 3397 
L 2834 2853 
Q 2591 2978 2328 3040 
Q 2066 3103 1784 3103 
Q 1356 3103 1142 2972 
Q 928 2841 928 2578 
Q 928 2378 1081 2264 
Q 1234 2150 1697 2047 
L 1894 2003 
Q 2506 1872 2764 1633 
Q 3022 1394 3022 966 
Q 3022 478 2636 193 
Q 2250 -91 1575 -91 
Q 1294 -91 989 -36 
Q 684 19 347 128 
L 347 722 
Q 666 556 975 473 
Q 1284 391 1588 391 
Q 1994 391 2212 530 
Q 2431 669 2431 922 
Q 2431 1156 2273 1281 
Q 2116 1406 1581 1522 
L 1381 1569 
Q 847 1681 609 1914 
Q 372 2147 372 2553 
Q 372 3047 722 3315 
Q 1072 3584 1716 3584 
Q 2034 3584 2315 3537 
Q 2597 3491 2834 3397 
z
" transform="scale(0.015625)"/>
       <path id="DejaVuSans-6f" d="M 1959 3097 
Q 1497 3097 1228 2736 
Q 959 2375 959 1747 
Q 959 1119 1226 758 
Q 1494 397 1959 397 
Q 2419 397 2687 759 
Q 2956 1122 2956 1747 
Q 2956 2369 2687 2733 
Q 2419 3097 1959 3097 
z
M 1959 3584 
Q 2709 3584 3137 3096 
Q 3566 2609 3566 1747 
Q 3566 888 3137 398 
Q 2709 -91 1959 -91 
Q 1206 -91 779 398 
Q 353 888 353 1747 
Q 353 2609 779 3096 
Q 1206 3584 1959 3584 
z
" transform="scale(0.015625)"/>
       <path id="DejaVuSans-6c" d="M 603 4863 
L 1178 4863 
L 1178 0 
L 603 0 
L 603 4863 
z
" transform="scale(0.015625)"/>
       <path id="DejaVuSans-64" d="M 2906 2969 
L 2906 4863 
L 3481 4863 
L 3481 0 
L 2906 0 
L 2906 525 
Q 2725 213 2448 61 
Q 2172 -91 1784 -91 
Q 1150 -91 751 415 
Q 353 922 353 1747 
Q 353 2572 751 3078 
Q 1150 3584 1784 3584 
Q 2172 3584 2448 3432 
Q 2725 3281 2906 2969 
z
M 947 1747 
Q 947 1113 1208 752 
Q 1469 391 1925 391 
Q 2381 391 2643 752 
Q 2906 1113 2906 1747 
Q 2906 2381 2643 2742 
Q 2381 3103 1925 3103 
Q 1469 3103 1208 2742 
Q 947 2381 947 1747 
z
" transform="scale(0.015625)"/>
      </defs>
      <use xlink:href="#DejaVuSans-54"/>
      <use xlink:href="#DejaVuSans-68" x="61.083984"/>
      <use xlink:href="#DejaVuSans-72" x="124.462891"/>
      <use xlink:href="#DejaVuSans-65" x="163.326172"/>
      <use xlink:href="#DejaVuSans-73" x="224.849609"/>
      <use xlink:href="#DejaVuSans-68" x="276.949219"/>
      <use xlink:href="#DejaVuSans-6f" x="340.328125"/>
      <use xlink:href="#DejaVuSans-6c" x="401.509766"/>
      <use xlink:href="#DejaVuSans-64" x="429.292969"/>
     </g>
    </g>
   </g>
   <g id="matplotlib.axis_2">
    <g id="ytick_1">
     <g id="line2d_13">
      <path d="M 91.8 594.6 
L 646.2 594.6 
" clip-path="url(#pcef45e9f8e)" style="fill: none; stroke: #b0b0b0; stroke-width: 0.8; stroke-linecap: square"/>
     </g>
     <g id="line2d_14">
      <defs>
       <path id="mad9701c4f4" d="M 0 0 
L -3.5 0 
" style="stroke: #000000; stroke-width: 0.8"/>
      </defs>
      <g>
       <use xlink:href="#mad9701c4f4" x="91.8" y="594.6" style="stroke: #000000; stroke-width: 0.8"/>
      </g>
     </g>
     <g id="text_8">
      <!-- 0.0 -->
      <g transform="translate(68.896875 598.399219) scale(0.1 -0.1)">
       <use xlink:href="#DejaVuSans-30"/>
       <use xlink:href="#DejaVuSans-2e" x="63.623047"/>
       <use xlink:href="#DejaVuSans-30" x="95.410156"/>
      </g>
     </g>
    </g>
    <g id="ytick_2">
     <g id="line2d_15">
      <path d="M 91.8 502.2 
L 646.2 502.2 
" clip-path="url(#pcef45e9f8e)" style="fill: none; stroke: #b0b0b0; stroke-width: 0.8; stroke-linecap: square"/>
     </g>
     <g id="line2d_16">
      <g>
       <use xlink:href="#mad9701c4f4" x="91.8" y="502.2" style="stroke: #000000; stroke-width: 0.8"/>
      </g>
     </g>
     <g id="text_9">
      <!-- 0.2 -->
      <g transform="translate(68.896875 505.999219) scale(0.1 -0.1)">
       <use xlink:href="#DejaVuSans-30"/>
       <use xlink:href="#DejaVuSans-2e" x="63.623047"/>
       <use xlink:href="#DejaVuSans-32" x="95.410156"/>
      </g>
     </g>
    </g>
    <g id="ytick_3">
     <g id="line2d_17">
      <path d="M 91.8 409.8 
L 646.2 409.8 
" clip-path="url(#pcef45e9f8e)" style="fill: none; stroke: #b0b0b0; stroke-width: 0.8; stroke-linecap: square"/>
     </g>
     <g id="line2d_18">
      <g>
       <use xlink:href="#mad9701c4f4" x="91.8" y="409.8" style="stroke: #000000; stroke-width: 0.8"/>
      </g>
     </g>
     <g id="text_10">
      <!-- 0.4 -->
      <g transform="translate(68.896875 413.599219) scale(0.1 -0.1)">
       <use xlink:href="#DejaVuSans-30"/>
       <use xlink:href="#DejaVuSans-2e" x="63.623047"/>
       <use xlink:href="#DejaVuSans-34" x="95.410156"/>
      </g>
     </g>
    </g>
    <g id="ytick_4">
     <g id="line2d_19">
      <path d="M 91.8 317.4 
L 646.2 317.4 
" clip-path="url(#pcef45e9f8e)" style="fill: none; stroke: #b0b0b0; stroke-width: 0.8; stroke-linecap: square"/>
     </g>
     <g id="line2d_20">
      <g>
       <use xlink:href="#mad9701c4f4" x="91.8" y="317.4" style="stroke: #000000; stroke-width: 0.8"/>
      </g>
     </g>
     <g id="text_11">
      <!-- 0.6 -->
      <g transform="translate(68.896875 321.199219) scale(0.1 -0.1)">
       <use xlink:href="#DejaVuSans-30"/>
       <use xlink:href="#DejaVuSans-2e" x="63.623047"/>
       <use xlink:href="#DejaVuSans-36" x="95.410156"/>
      </g>
     </g>
    </g>
    <g id="ytick_5">
     <g id="line2d_21">
      <path d="M 91.8 225 
L 646.2 225 
" clip-path="url(#pcef45e9f8e)" style="fill: none; stroke: #b0b0b0; stroke-width: 0.8; stroke-linecap: square"/>
     </g>
     <g id="line2d_22">
      <g>
       <use xlink:href="#mad9701c4f4" x="91.8" y="225" style="stroke: #000000; stroke-width: 0.8"/>
      </g>
     </g>
     <g id="text_12">
      <!-- 0.8 -->
      <g transform="translate(68.896875 228.799219) scale(0.1 -0.1)">
       <use xlink:href="#DejaVuSans-30"/>
       <use xlink:href="#DejaVuSans-2e" x="63.623047"/>
       <use xlink:href="#DejaVuSans-38" x="95.410156"/>
      </g>
     </g>
    </g>
    <g id="ytick_6">
     <g id="line2d_23">
      <path d="M 91.8 132.6 
L 646.2 132.6 
" clip-path="url(#pcef45e9f8e)" style="fill: none; stroke: #b0b0b0; stroke-width: 0.8; stroke-linecap: square"/>
     </g>
     <g id="line2d_24">
      <g>
       <use xlink:href="#mad9701c4f4" x="91.8" y="132.6" style="stroke: #000000; stroke-width: 0.8"/>
      </g>
     </g>
     <g id="text_13">
      <!-- 1.0 -->
      <g transform="translate(68.896875 136.399219) scale(0.1 -0.1)">
       <use xlink:href="#DejaVuSans-31"/>
       <use xlink:href="#DejaVuSans-2e" x="63.623047"/>
       <use xlink:href="#DejaVuSans-30" x="95.410156"/>
      </g>
     </g>
    </g>
    <g id="text_14">
     <!-- Classification Performance -->
     <g transform="translate(62.817187 429.953906) rotate(-90) scale(0.1 -0.1)">
      <defs>
       <path id="DejaVuSans-43" d="M 4122 4306 
L 4122 3641 
Q 3803 3938 3442 4084 
Q 3081 4231 2675 4231 
Q 1875 4231 1450 3742 
Q 1025 3253 1025 2328 
Q 1025 1406 1450 917 
Q 1875 428 2675 428 
Q 3081 428 3442 575 
Q 3803 722 4122 1019 
L 4122 359 
Q 3791 134 3420 21 
Q 3050 -91 2638 -91 
Q 1578 -91 968 557 
Q 359 1206 359 2328 
Q 359 3453 968 4101 
Q 1578 4750 2638 4750 
Q 3056 4750 3426 4639 
Q 3797 4528 4122 4306 
z
" transform="scale(0.015625)"/>
       <path id="DejaVuSans-61" d="M 2194 1759 
Q 1497 1759 1228 1600 
Q 959 1441 959 1056 
Q 959 750 1161 570 
Q 1363 391 1709 391 
Q 2188 391 2477 730 
Q 2766 1069 2766 1631 
L 2766 1759 
L 2194 1759 
z
M 3341 1997 
L 3341 0 
L 2766 0 
L 2766 531 
Q 2569 213 2275 61 
Q 1981 -91 1556 -91 
Q 1019 -91 701 211 
Q 384 513 384 1019 
Q 384 1609 779 1909 
Q 1175 2209 1959 2209 
L 2766 2209 
L 2766 2266 
Q 2766 2663 2505 2880 
Q 2244 3097 1772 3097 
Q 1472 3097 1187 3025 
Q 903 2953 641 2809 
L 641 3341 
Q 956 3463 1253 3523 
Q 1550 3584 1831 3584 
Q 2591 3584 2966 3190 
Q 3341 2797 3341 1997 
z
" transform="scale(0.015625)"/>
       <path id="DejaVuSans-69" d="M 603 3500 
L 1178 3500 
L 1178 0 
L 603 0 
L 603 3500 
z
M 603 4863 
L 1178 4863 
L 1178 4134 
L 603 4134 
L 603 4863 
z
" transform="scale(0.015625)"/>
       <path id="DejaVuSans-66" d="M 2375 4863 
L 2375 4384 
L 1825 4384 
Q 1516 4384 1395 4259 
Q 1275 4134 1275 3809 
L 1275 3500 
L 2222 3500 
L 2222 3053 
L 1275 3053 
L 1275 0 
L 697 0 
L 697 3053 
L 147 3053 
L 147 3500 
L 697 3500 
L 697 3744 
Q 697 4328 969 4595 
Q 1241 4863 1831 4863 
L 2375 4863 
z
" transform="scale(0.015625)"/>
       <path id="DejaVuSans-63" d="M 3122 3366 
L 3122 2828 
Q 2878 2963 2633 3030 
Q 2388 3097 2138 3097 
Q 1578 3097 1268 2742 
Q 959 2388 959 1747 
Q 959 1106 1268 751 
Q 1578 397 2138 397 
Q 2388 397 2633 464 
Q 2878 531 3122 666 
L 3122 134 
Q 2881 22 2623 -34 
Q 2366 -91 2075 -91 
Q 1284 -91 818 406 
Q 353 903 353 1747 
Q 353 2603 823 3093 
Q 1294 3584 2113 3584 
Q 2378 3584 2631 3529 
Q 2884 3475 3122 3366 
z
" transform="scale(0.015625)"/>
       <path id="DejaVuSans-74" d="M 1172 4494 
L 1172 3500 
L 2356 3500 
L 2356 3053 
L 1172 3053 
L 1172 1153 
Q 1172 725 1289 603 
Q 1406 481 1766 481 
L 2356 481 
L 2356 0 
L 1766 0 
Q 1100 0 847 248 
Q 594 497 594 1153 
L 594 3053 
L 172 3053 
L 172 3500 
L 594 3500 
L 594 4494 
L 1172 4494 
z
" transform="scale(0.015625)"/>
       <path id="DejaVuSans-6e" d="M 3513 2113 
L 3513 0 
L 2938 0 
L 2938 2094 
Q 2938 2591 2744 2837 
Q 2550 3084 2163 3084 
Q 1697 3084 1428 2787 
Q 1159 2491 1159 1978 
L 1159 0 
L 581 0 
L 581 3500 
L 1159 3500 
L 1159 2956 
Q 1366 3272 1645 3428 
Q 1925 3584 2291 3584 
Q 2894 3584 3203 3211 
Q 3513 2838 3513 2113 
z
" transform="scale(0.015625)"/>
       <path id="DejaVuSans-20" transform="scale(0.015625)"/>
       <path id="DejaVuSans-50" d="M 1259 4147 
L 1259 2394 
L 2053 2394 
Q 2494 2394 2734 2622 
Q 2975 2850 2975 3272 
Q 2975 3691 2734 3919 
Q 2494 4147 2053 4147 
L 1259 4147 
z
M 628 4666 
L 2053 4666 
Q 2838 4666 3239 4311 
Q 3641 3956 3641 3272 
Q 3641 2581 3239 2228 
Q 2838 1875 2053 1875 
L 1259 1875 
L 1259 0 
L 628 0 
L 628 4666 
z
" transform="scale(0.015625)"/>
       <path id="DejaVuSans-6d" d="M 3328 2828 
Q 3544 3216 3844 3400 
Q 4144 3584 4550 3584 
Q 5097 3584 5394 3201 
Q 5691 2819 5691 2113 
L 5691 0 
L 5113 0 
L 5113 2094 
Q 5113 2597 4934 2840 
Q 4756 3084 4391 3084 
Q 3944 3084 3684 2787 
Q 3425 2491 3425 1978 
L 3425 0 
L 2847 0 
L 2847 2094 
Q 2847 2600 2669 2842 
Q 2491 3084 2119 3084 
Q 1678 3084 1418 2786 
Q 1159 2488 1159 1978 
L 1159 0 
L 581 0 
L 581 3500 
L 1159 3500 
L 1159 2956 
Q 1356 3278 1631 3431 
Q 1906 3584 2284 3584 
Q 2666 3584 2933 3390 
Q 3200 3197 3328 2828 
z
" transform="scale(0.015625)"/>
      </defs>
      <use xlink:href="#DejaVuSans-43"/>
      <use xlink:href="#DejaVuSans-6c" x="69.824219"/>
      <use xlink:href="#DejaVuSans-61" x="97.607422"/>
      <use xlink:href="#DejaVuSans-73" x="158.886719"/>
      <use xlink:href="#DejaVuSans-73" x="210.986328"/>
      <use xlink:href="#DejaVuSans-69" x="263.085938"/>
      <use xlink:href="#DejaVuSans-66" x="290.869141"/>
      <use xlink:href="#DejaVuSans-69" x="326.074219"/>
      <use xlink:href="#DejaVuSans-63" x="353.857422"/>
      <use xlink:href="#DejaVuSans-61" x="408.837891"/>
      <use xlink:href="#DejaVuSans-74" x="470.117188"/>
      <use xlink:href="#DejaVuSans-69" x="509.326172"/>
      <use xlink:href="#DejaVuSans-6f" x="537.109375"/>
      <use xlink:href="#DejaVuSans-6e" x="598.291016"/>
      <use xlink:href="#DejaVuSans-20" x="661.669922"/>
      <use xlink:href="#DejaVuSans-50" x="693.457031"/>
      <use xlink:href="#DejaVuSans-65" x="750.134766"/>
      <use xlink:href="#DejaVuSans-72" x="811.658203"/>
      <use xlink:href="#DejaVuSans-66" x="852.771484"/>
      <use xlink:href="#DejaVuSans-6f" x="887.976562"/>
      <use xlink:href="#DejaVuSans-72" x="949.158203"/>
      <use xlink:href="#DejaVuSans-6d" x="988.521484"/>
      <use xlink:href="#DejaVuSans-61" x="1085.933594"/>
      <use xlink:href="#DejaVuSans-6e" x="1147.212891"/>
      <use xlink:href="#DejaVuSans-63" x="1210.591797"/>
      <use xlink:href="#DejaVuSans-65" x="1265.572266"/>
     </g>
    </g>
   </g>
   <g id="line2d_25">
    <path d="M 600 443.216505 
L 595.38 443.216505 
L 590.76 443.216505 
L 586.14 443.216505 
L 581.52 443.216505 
L 576.9 443.216505 
L 572.28 443.216505 
L 567.66 443.216505 
L 563.04 443.216505 
L 558.42 443.216505 
L 553.8 432.427653 
L 549.18 432.427653 
L 544.56 432.427653 
L 539.94 432.427653 
L 535.32 432.427653 
L 530.7 432.427653 
L 526.08 432.427653 
L 521.46 432.427653 
L 516.84 432.427653 
L 512.22 432.427653 
L 507.6 398.833556 
L 502.98 398.833556 
L 498.36 398.833556 
L 493.74 398.833556 
L 489.12 398.833556 
L 484.5 398.833556 
L 479.88 398.833556 
L 475.26 398.833556 
L 470.64 398.833556 
L 466.02 398.833556 
L 461.4 376.716377 
L 456.78 376.716377 
L 452.16 376.716377 
L 447.54 376.716377 
L 442.92 376.716377 
L 438.3 376.716377 
L 433.68 376.716377 
L 429.06 376.716377 
L 424.44 376.716377 
L 419.82 376.716377 
L 415.2 372.745319 
L 410.58 372.745319 
L 405.96 372.745319 
L 401.34 372.745319 
L 396.72 372.745319 
L 392.1 372.745319 
L 387.48 372.745319 
L 382.86 372.745319 
L 378.24 372.745319 
L 373.62 372.745319 
L 369 356.417035 
L 364.38 356.417035 
L 359.76 356.417035 
L 355.14 356.417035 
L 350.52 356.417035 
L 345.9 356.417035 
L 341.28 356.417035 
L 336.66 356.417035 
L 332.04 356.417035 
L 327.42 356.417035 
L 322.8 348.322222 
L 318.18 348.322222 
L 313.56 348.322222 
L 308.94 348.322222 
L 304.32 348.322222 
L 299.7 348.322222 
L 295.08 348.322222 
L 290.46 348.322222 
L 285.84 348.322222 
L 281.22 348.322222 
L 276.6 349.750109 
L 271.98 349.750109 
L 267.36 349.750109 
L 262.74 349.750109 
L 258.12 349.750109 
L 253.5 349.750109 
L 248.88 349.750109 
L 244.26 349.750109 
L 239.64 349.750109 
L 235.02 349.750109 
L 230.4 350.391357 
L 225.78 350.391357 
L 221.16 350.391357 
L 216.54 350.391357 
L 211.92 350.391357 
L 207.3 350.391357 
L 202.68 350.391357 
L 198.06 350.391357 
L 193.44 350.391357 
L 188.82 350.391357 
L 184.2 350.699476 
L 179.58 350.699476 
L 174.96 350.699476 
L 170.34 350.699476 
L 165.72 350.699476 
L 161.1 350.699476 
L 156.48 350.699476 
L 151.86 350.699476 
L 147.24 350.699476 
L 142.62 350.699476 
L 138 350.699476 
" clip-path="url(#pcef45e9f8e)" style="fill: none; stroke: #1f77b4; stroke-width: 1.5; stroke-linecap: square"/>
   </g>
   <g id="line2d_26">
    <path d="M 600 534.618547 
L 595.38 534.618547 
L 590.76 534.618547 
L 586.14 534.618547 
L 581.52 534.618547 
L 576.9 534.618547 
L 572.28 534.618547 
L 567.66 534.618547 
L 563.04 534.618547 
L 558.42 534.618547 
L 553.8 518.446154 
L 549.18 518.446154 
L 544.56 518.446154 
L 539.94 518.446154 
L 535.32 518.446154 
L 530.7 518.446154 
L 526.08 518.446154 
L 521.46 518.446154 
L 516.84 518.446154 
L 512.22 518.446154 
L 507.6 474.52393 
L 502.98 474.52393 
L 498.36 474.52393 
L 493.74 474.52393 
L 489.12 474.52393 
L 484.5 474.52393 
L 479.88 474.52393 
L 475.26 474.52393 
L 470.64 474.52393 
L 466.02 474.52393 
L 461.4 442.513043 
L 456.78 442.513043 
L 452.16 442.513043 
L 447.54 442.513043 
L 442.92 442.513043 
L 438.3 442.513043 
L 433.68 442.513043 
L 429.06 442.513043 
L 424.44 442.513043 
L 419.82 442.513043 
L 415.2 432.702564 
L 410.58 432.702564 
L 405.96 432.702564 
L 401.34 432.702564 
L 396.72 432.702564 
L 392.1 432.702564 
L 387.48 432.702564 
L 382.86 432.702564 
L 378.24 432.702564 
L 373.62 432.702564 
L 369 413.585915 
L 364.38 413.585915 
L 359.76 413.585915 
L 355.14 413.585915 
L 350.52 413.585915 
L 345.9 413.585915 
L 341.28 413.585915 
L 336.66 413.585915 
L 332.04 413.585915 
L 327.42 413.585915 
L 322.8 404.840373 
L 318.18 404.840373 
L 313.56 404.840373 
L 308.94 404.840373 
L 304.32 404.840373 
L 299.7 404.840373 
L 295.08 404.840373 
L 290.46 404.840373 
L 285.84 404.840373 
L 281.22 404.840373 
L 276.6 407.009396 
L 271.98 407.009396 
L 267.36 407.009396 
L 262.74 407.009396 
L 258.12 407.009396 
L 253.5 407.009396 
L 248.88 407.009396 
L 244.26 407.009396 
L 239.64 407.009396 
L 235.02 407.009396 
L 230.4 408.062389 
L 225.78 408.062389 
L 221.16 408.062389 
L 216.54 408.062389 
L 211.92 408.062389 
L 207.3 408.062389 
L 202.68 408.062389 
L 198.06 408.062389 
L 193.44 408.062389 
L 188.82 408.062389 
L 184.2 408.474172 
L 179.58 408.474172 
L 174.96 408.474172 
L 170.34 408.474172 
L 165.72 408.474172 
L 161.1 408.474172 
L 156.48 408.474172 
L 151.86 408.474172 
L 147.24 408.474172 
L 142.62 408.474172 
L 138 408.474172 
" clip-path="url(#pcef45e9f8e)" style="fill: none; stroke: #ff7f0e; stroke-width: 1.5; stroke-linecap: square"/>
   </g>
   <g id="line2d_27">
    <path d="M 600 551.765563 
L 595.38 551.765563 
L 590.76 551.765563 
L 586.14 551.765563 
L 581.52 551.765563 
L 576.9 551.765563 
L 572.28 551.765563 
L 567.66 551.765563 
L 563.04 551.765563 
L 558.42 551.765563 
L 553.8 541.056954 
L 549.18 541.056954 
L 544.56 541.056954 
L 539.94 541.056954 
L 535.32 541.056954 
L 530.7 541.056954 
L 526.08 541.056954 
L 521.46 541.056954 
L 516.84 541.056954 
L 512.22 541.056954 
L 507.6 510.970861 
L 502.98 510.970861 
L 498.36 510.970861 
L 493.74 510.970861 
L 489.12 510.970861 
L 484.5 510.970861 
L 479.88 510.970861 
L 475.26 510.970861 
L 470.64 510.970861 
L 466.02 510.970861 
L 461.4 486.49404 
L 456.78 486.49404 
L 452.16 486.49404 
L 447.54 486.49404 
L 442.92 486.49404 
L 438.3 486.49404 
L 433.68 486.49404 
L 429.06 486.49404 
L 424.44 486.49404 
L 419.82 486.49404 
L 415.2 469.156291 
L 410.58 469.156291 
L 405.96 469.156291 
L 401.34 469.156291 
L 396.72 469.156291 
L 392.1 469.156291 
L 387.48 469.156291 
L 382.86 469.156291 
L 378.24 469.156291 
L 373.62 469.156291 
L 369 438.560265 
L 364.38 438.560265 
L 359.76 438.560265 
L 355.14 438.560265 
L 350.52 438.560265 
L 345.9 438.560265 
L 341.28 438.560265 
L 336.66 438.560265 
L 332.04 438.560265 
L 327.42 438.560265 
L 322.8 415.103311 
L 318.18 415.103311 
L 313.56 415.103311 
L 308.94 415.103311 
L 304.32 415.103311 
L 299.7 415.103311 
L 295.08 415.103311 
L 290.46 415.103311 
L 285.84 415.103311 
L 281.22 415.103311 
L 276.6 409.49404 
L 271.98 409.49404 
L 267.36 409.49404 
L 262.74 409.49404 
L 258.12 409.49404 
L 253.5 409.49404 
L 248.88 409.49404 
L 244.26 409.49404 
L 239.64 409.49404 
L 235.02 409.49404 
L 230.4 408.474172 
L 225.78 408.474172 
L 221.16 408.474172 
L 216.54 408.474172 
L 211.92 408.474172 
L 207.3 408.474172 
L 202.68 408.474172 
L 198.06 408.474172 
L 193.44 408.474172 
L 188.82 408.474172 
L 184.2 408.474172 
L 179.58 408.474172 
L 174.96 408.474172 
L 170.34 408.474172 
L 165.72 408.474172 
L 161.1 408.474172 
L 156.48 408.474172 
L 151.86 408.474172 
L 147.24 408.474172 
L 142.62 408.474172 
L 138 408.474172 
" clip-path="url(#pcef45e9f8e)" style="fill: none; stroke: #2ca02c; stroke-width: 1.5; stroke-linecap: square"/>
   </g>
   <g id="line2d_28">
    <path d="M 600 544.621893 
L 595.38 544.621893 
L 590.76 544.621893 
L 586.14 544.621893 
L 581.52 544.621893 
L 576.9 544.621893 
L 572.28 544.621893 
L 567.66 544.621893 
L 563.04 544.621893 
L 558.42 544.621893 
L 553.8 531.722489 
L 549.18 531.722489 
L 544.56 531.722489 
L 539.94 531.722489 
L 535.32 531.722489 
L 530.7 531.722489 
L 526.08 531.722489 
L 521.46 531.722489 
L 516.84 531.722489 
L 512.22 531.722489 
L 507.6 496.007938 
L 502.98 496.007938 
L 498.36 496.007938 
L 493.74 496.007938 
L 489.12 496.007938 
L 484.5 496.007938 
L 479.88 496.007938 
L 475.26 496.007938 
L 470.64 496.007938 
L 466.02 496.007938 
L 461.4 468.220645 
L 456.78 468.220645 
L 452.16 468.220645 
L 447.54 468.220645 
L 442.92 468.220645 
L 438.3 468.220645 
L 433.68 468.220645 
L 429.06 468.220645 
L 424.44 468.220645 
L 419.82 468.220645 
L 415.2 453.241791 
L 410.58 453.241791 
L 405.96 453.241791 
L 401.34 453.241791 
L 396.72 453.241791 
L 392.1 453.241791 
L 387.48 453.241791 
L 382.86 453.241791 
L 378.24 453.241791 
L 373.62 453.241791 
L 369 426.99834 
L 364.38 426.99834 
L 359.76 426.99834 
L 355.14 426.99834 
L 350.52 426.99834 
L 345.9 426.99834 
L 341.28 426.99834 
L 336.66 426.99834 
L 332.04 426.99834 
L 327.42 426.99834 
L 322.8 410.114464 
L 318.18 410.114464 
L 313.56 410.114464 
L 308.94 410.114464 
L 304.32 410.114464 
L 299.7 410.114464 
L 295.08 410.114464 
L 290.46 410.114464 
L 285.84 410.114464 
L 281.22 410.114464 
L 276.6 408.26 
L 271.98 408.26 
L 267.36 408.26 
L 262.74 408.26 
L 258.12 408.26 
L 253.5 408.26 
L 248.88 408.26 
L 244.26 408.26 
L 239.64 408.26 
L 235.02 408.26 
L 230.4 408.268508 
L 225.78 408.268508 
L 221.16 408.268508 
L 216.54 408.268508 
L 211.92 408.268508 
L 207.3 408.268508 
L 202.68 408.268508 
L 198.06 408.268508 
L 193.44 408.268508 
L 188.82 408.268508 
L 184.2 408.474172 
L 179.58 408.474172 
L 174.96 408.474172 
L 170.34 408.474172 
L 165.72 408.474172 
L 161.1 408.474172 
L 156.48 408.474172 
L 151.86 408.474172 
L 147.24 408.474172 
L 142.62 408.474172 
L 138 408.474172 
" clip-path="url(#pcef45e9f8e)" style="fill: none; stroke: #d62728; stroke-width: 1.5; stroke-linecap: square"/>
   </g>
   <g id="line2d_29">
    <path d="M 509.059874 721 
L 507.6 699.774143 
L 502.98 699.774143 
L 498.36 699.774143 
L 493.74 699.774143 
L 489.12 699.774143 
L 484.5 699.774143 
L 479.88 699.774143 
L 475.26 699.774143 
L 470.64 699.774143 
L 466.02 699.774143 
L 461.4 653.616141 
L 456.78 653.616141 
L 452.16 653.616141 
L 447.54 653.616141 
L 442.92 653.616141 
L 438.3 653.616141 
L 433.68 653.616141 
L 429.06 653.616141 
L 424.44 653.616141 
L 419.82 653.616141 
L 415.2 641.256231 
L 410.58 641.256231 
L 405.96 641.256231 
L 401.34 641.256231 
L 396.72 641.256231 
L 392.1 641.256231 
L 387.48 641.256231 
L 382.86 641.256231 
L 378.24 641.256231 
L 373.62 641.256231 
L 369 606.020397 
L 364.38 606.020397 
L 359.76 606.020397 
L 355.14 606.020397 
L 350.52 606.020397 
L 345.9 606.020397 
L 341.28 606.020397 
L 336.66 606.020397 
L 332.04 606.020397 
L 327.42 606.020397 
L 322.8 586.319425 
L 318.18 586.319425 
L 313.56 586.319425 
L 308.94 586.319425 
L 304.32 586.319425 
L 299.7 586.319425 
L 295.08 586.319425 
L 290.46 586.319425 
L 285.84 586.319425 
L 281.22 586.319425 
L 276.6 587.375671 
L 271.98 587.375671 
L 267.36 587.375671 
L 262.74 587.375671 
L 258.12 587.375671 
L 253.5 587.375671 
L 248.88 587.375671 
L 244.26 587.375671 
L 239.64 587.375671 
L 235.02 587.375671 
L 230.4 588.268134 
L 225.78 588.268134 
L 221.16 588.268134 
L 216.54 588.268134 
L 211.92 588.268134 
L 207.3 588.268134 
L 202.68 588.268134 
L 198.06 588.268134 
L 193.44 588.268134 
L 188.82 588.268134 
L 184.2 588.807506 
L 179.58 588.807506 
L 174.96 588.807506 
L 170.34 588.807506 
L 165.72 588.807506 
L 161.1 588.807506 
L 156.48 588.807506 
L 151.86 588.807506 
L 147.24 588.807506 
L 142.62 588.807506 
L 138 588.807506 
" clip-path="url(#pcef45e9f8e)" style="fill: none; stroke: #9467bd; stroke-width: 1.5; stroke-linecap: square"/>
   </g>
   <g id="line2d_30">
    <path d="M 600 369.204853 
L 595.38 369.204853 
L 590.76 369.204853 
L 586.14 369.204853 
L 581.52 369.204853 
L 576.9 369.204853 
L 572.28 369.204853 
L 567.66 369.204853 
L 563.04 369.204853 
L 558.42 369.204853 
L 553.8 380.502439 
L 549.18 380.502439 
L 544.56 380.502439 
L 539.94 380.502439 
L 535.32 380.502439 
L 530.7 380.502439 
L 526.08 380.502439 
L 521.46 380.502439 
L 516.84 380.502439 
L 512.22 380.502439 
L 507.6 413.598322 
L 502.98 413.598322 
L 498.36 413.598322 
L 493.74 413.598322 
L 489.12 413.598322 
L 484.5 413.598322 
L 479.88 413.598322 
L 475.26 413.598322 
L 470.64 413.598322 
L 466.02 413.598322 
L 461.4 431.674286 
L 456.78 431.674286 
L 452.16 431.674286 
L 447.54 431.674286 
L 442.92 431.674286 
L 438.3 431.674286 
L 433.68 431.674286 
L 429.06 431.674286 
L 424.44 431.674286 
L 419.82 431.674286 
L 415.2 424.840129 
L 410.58 424.840129 
L 405.96 424.840129 
L 401.34 424.840129 
L 396.72 424.840129 
L 392.1 424.840129 
L 387.48 424.840129 
L 382.86 424.840129 
L 378.24 424.840129 
L 373.62 424.840129 
L 369 427.463671 
L 364.38 427.463671 
L 359.76 427.463671 
L 355.14 427.463671 
L 350.52 427.463671 
L 345.9 427.463671 
L 341.28 427.463671 
L 336.66 427.463671 
L 332.04 427.463671 
L 327.42 427.463671 
L 322.8 423.300441 
L 318.18 423.300441 
L 313.56 423.300441 
L 308.94 423.300441 
L 304.32 423.300441 
L 299.7 423.300441 
L 295.08 423.300441 
L 290.46 423.300441 
L 285.84 423.300441 
L 281.22 423.300441 
L 276.6 416.701523 
L 271.98 416.701523 
L 267.36 416.701523 
L 262.74 416.701523 
L 258.12 416.701523 
L 253.5 416.701523 
L 248.88 416.701523 
L 244.26 416.701523 
L 239.64 416.701523 
L 235.02 416.701523 
L 230.4 414.80361 
L 225.78 414.80361 
L 221.16 414.80361 
L 216.54 414.80361 
L 211.92 414.80361 
L 207.3 414.80361 
L 202.68 414.80361 
L 198.06 414.80361 
L 193.44 414.80361 
L 188.82 414.80361 
L 184.2 414.266667 
L 179.58 414.266667 
L 174.96 414.266667 
L 170.34 414.266667 
L 165.72 414.266667 
L 161.1 414.266667 
L 156.48 414.266667 
L 151.86 414.266667 
L 147.24 414.266667 
L 142.62 414.266667 
L 138 414.266667 
" clip-path="url(#pcef45e9f8e)" style="fill: none; stroke: #8c564b; stroke-width: 1.5; stroke-linecap: square"/>
   </g>
   <g id="line2d_31">
    <path d="M 322.8 594.6 
L 322.8 132.6 
" clip-path="url(#pcef45e9f8e)" style="fill: none; stroke: #ff0000; stroke-opacity: 0.5; stroke-width: 1.5; stroke-linecap: square"/>
   </g>
   <g id="patch_3">
    <path d="M 91.8 640.8 
L 91.8 86.4 
" style="fill: none; stroke: #000000; stroke-width: 0.8; stroke-linejoin: miter; stroke-linecap: square"/>
   </g>
   <g id="patch_4">
    <path d="M 646.2 640.8 
L 646.2 86.4 
" style="fill: none; stroke: #000000; stroke-width: 0.8; stroke-linejoin: miter; stroke-linecap: square"/>
   </g>
   <g id="patch_5">
    <path d="M 91.8 640.8 
L 646.2 640.8 
" style="fill: none; stroke: #000000; stroke-width: 0.8; stroke-linejoin: miter; stroke-linecap: square"/>
   </g>
   <g id="patch_6">
    <path d="M 91.8 86.4 
L 646.2 86.4 
" style="fill: none; stroke: #000000; stroke-width: 0.8; stroke-linejoin: miter; stroke-linecap: square"/>
   </g>
   <g id="legend_1">
    <g id="patch_7">
     <path d="M 561.54375 182.46875 
L 639.2 182.46875 
Q 641.2 182.46875 641.2 180.46875 
L 641.2 93.4 
Q 641.2 91.4 639.2 91.4 
L 561.54375 91.4 
Q 559.54375 91.4 559.54375 93.4 
L 559.54375 180.46875 
Q 559.54375 182.46875 561.54375 182.46875 
z
" style="fill: #ffffff; opacity: 0.8; stroke: #cccccc; stroke-linejoin: miter"/>
    </g>
    <g id="line2d_32">
     <path d="M 563.54375 99.498438 
L 573.54375 99.498438 
L 583.54375 99.498438 
" style="fill: none; stroke: #1f77b4; stroke-width: 1.5; stroke-linecap: square"/>
    </g>
    <g id="text_15">
     <!-- Accuracy -->
     <g transform="translate(591.54375 102.998438) scale(0.1 -0.1)">
      <defs>
       <path id="DejaVuSans-41" d="M 2188 4044 
L 1331 1722 
L 3047 1722 
L 2188 4044 
z
M 1831 4666 
L 2547 4666 
L 4325 0 
L 3669 0 
L 3244 1197 
L 1141 1197 
L 716 0 
L 50 0 
L 1831 4666 
z
" transform="scale(0.015625)"/>
       <path id="DejaVuSans-75" d="M 544 1381 
L 544 3500 
L 1119 3500 
L 1119 1403 
Q 1119 906 1312 657 
Q 1506 409 1894 409 
Q 2359 409 2629 706 
Q 2900 1003 2900 1516 
L 2900 3500 
L 3475 3500 
L 3475 0 
L 2900 0 
L 2900 538 
Q 2691 219 2414 64 
Q 2138 -91 1772 -91 
Q 1169 -91 856 284 
Q 544 659 544 1381 
z
M 1991 3584 
L 1991 3584 
z
" transform="scale(0.015625)"/>
       <path id="DejaVuSans-79" d="M 2059 -325 
Q 1816 -950 1584 -1140 
Q 1353 -1331 966 -1331 
L 506 -1331 
L 506 -850 
L 844 -850 
Q 1081 -850 1212 -737 
Q 1344 -625 1503 -206 
L 1606 56 
L 191 3500 
L 800 3500 
L 1894 763 
L 2988 3500 
L 3597 3500 
L 2059 -325 
z
" transform="scale(0.015625)"/>
      </defs>
      <use xlink:href="#DejaVuSans-41"/>
      <use xlink:href="#DejaVuSans-63" x="66.658203"/>
      <use xlink:href="#DejaVuSans-63" x="121.638672"/>
      <use xlink:href="#DejaVuSans-75" x="176.619141"/>
      <use xlink:href="#DejaVuSans-72" x="239.998047"/>
      <use xlink:href="#DejaVuSans-61" x="281.111328"/>
      <use xlink:href="#DejaVuSans-63" x="342.390625"/>
      <use xlink:href="#DejaVuSans-79" x="397.371094"/>
     </g>
    </g>
    <g id="line2d_33">
     <path d="M 563.54375 114.176563 
L 573.54375 114.176563 
L 583.54375 114.176563 
" style="fill: none; stroke: #ff7f0e; stroke-width: 1.5; stroke-linecap: square"/>
    </g>
    <g id="text_16">
     <!-- Precision -->
     <g transform="translate(591.54375 117.676563) scale(0.1 -0.1)">
      <use xlink:href="#DejaVuSans-50"/>
      <use xlink:href="#DejaVuSans-72" x="58.552734"/>
      <use xlink:href="#DejaVuSans-65" x="97.416016"/>
      <use xlink:href="#DejaVuSans-63" x="158.939453"/>
      <use xlink:href="#DejaVuSans-69" x="213.919922"/>
      <use xlink:href="#DejaVuSans-73" x="241.703125"/>
      <use xlink:href="#DejaVuSans-69" x="293.802734"/>
      <use xlink:href="#DejaVuSans-6f" x="321.585938"/>
      <use xlink:href="#DejaVuSans-6e" x="382.767578"/>
     </g>
    </g>
    <g id="line2d_34">
     <path d="M 563.54375 128.854688 
L 573.54375 128.854688 
L 583.54375 128.854688 
" style="fill: none; stroke: #2ca02c; stroke-width: 1.5; stroke-linecap: square"/>
    </g>
    <g id="text_17">
     <!-- Recall -->
     <g transform="translate(591.54375 132.354688) scale(0.1 -0.1)">
      <defs>
       <path id="DejaVuSans-52" d="M 2841 2188 
Q 3044 2119 3236 1894 
Q 3428 1669 3622 1275 
L 4263 0 
L 3584 0 
L 2988 1197 
Q 2756 1666 2539 1819 
Q 2322 1972 1947 1972 
L 1259 1972 
L 1259 0 
L 628 0 
L 628 4666 
L 2053 4666 
Q 2853 4666 3247 4331 
Q 3641 3997 3641 3322 
Q 3641 2881 3436 2590 
Q 3231 2300 2841 2188 
z
M 1259 4147 
L 1259 2491 
L 2053 2491 
Q 2509 2491 2742 2702 
Q 2975 2913 2975 3322 
Q 2975 3731 2742 3939 
Q 2509 4147 2053 4147 
L 1259 4147 
z
" transform="scale(0.015625)"/>
      </defs>
      <use xlink:href="#DejaVuSans-52"/>
      <use xlink:href="#DejaVuSans-65" x="64.982422"/>
      <use xlink:href="#DejaVuSans-63" x="126.505859"/>
      <use xlink:href="#DejaVuSans-61" x="181.486328"/>
      <use xlink:href="#DejaVuSans-6c" x="242.765625"/>
      <use xlink:href="#DejaVuSans-6c" x="270.548828"/>
     </g>
    </g>
    <g id="line2d_35">
     <path d="M 563.54375 143.532812 
L 573.54375 143.532812 
L 583.54375 143.532812 
" style="fill: none; stroke: #d62728; stroke-width: 1.5; stroke-linecap: square"/>
    </g>
    <g id="text_18">
     <!-- F1 -->
     <g transform="translate(591.54375 147.032812) scale(0.1 -0.1)">
      <defs>
       <path id="DejaVuSans-46" d="M 628 4666 
L 3309 4666 
L 3309 4134 
L 1259 4134 
L 1259 2759 
L 3109 2759 
L 3109 2228 
L 1259 2228 
L 1259 0 
L 628 0 
L 628 4666 
z
" transform="scale(0.015625)"/>
      </defs>
      <use xlink:href="#DejaVuSans-46"/>
      <use xlink:href="#DejaVuSans-31" x="57.519531"/>
     </g>
    </g>
    <g id="line2d_36">
     <path d="M 563.54375 158.210938 
L 573.54375 158.210938 
L 583.54375 158.210938 
" style="fill: none; stroke: #9467bd; stroke-width: 1.5; stroke-linecap: square"/>
    </g>
    <g id="text_19">
     <!-- MCC -->
     <g transform="translate(591.54375 161.710938) scale(0.1 -0.1)">
      <defs>
       <path id="DejaVuSans-4d" d="M 628 4666 
L 1569 4666 
L 2759 1491 
L 3956 4666 
L 4897 4666 
L 4897 0 
L 4281 0 
L 4281 4097 
L 3078 897 
L 2444 897 
L 1241 4097 
L 1241 0 
L 628 0 
L 628 4666 
z
" transform="scale(0.015625)"/>
      </defs>
      <use xlink:href="#DejaVuSans-4d"/>
      <use xlink:href="#DejaVuSans-43" x="86.279297"/>
      <use xlink:href="#DejaVuSans-43" x="156.103516"/>
     </g>
    </g>
    <g id="line2d_37">
     <path d="M 563.54375 172.889063 
L 573.54375 172.889063 
L 583.54375 172.889063 
" style="fill: none; stroke: #8c564b; stroke-width: 1.5; stroke-linecap: square"/>
    </g>
    <g id="text_20">
     <!-- FPR -->
     <g transform="translate(591.54375 176.389063) scale(0.1 -0.1)">
      <use xlink:href="#DejaVuSans-46"/>
      <use xlink:href="#DejaVuSans-50" x="57.519531"/>
      <use xlink:href="#DejaVuSans-52" x="117.822266"/>
     </g>
    </g>
   </g>
  </g>
 </g>
 <defs>
  <clipPath id="pcef45e9f8e">
   <rect x="91.8" y="86.4" width="554.4" height="554.4"/>
  </clipPath>
 </defs>
</svg>
